<svg id="visual" viewBox="0 0 900 600" width="900" height="600" xmlns="http://www.w3.org/2000/svg" xmlns:xlink="http://www.w3.org/1999/xlink" version="1.1"><rect x="0" y="0" width="900" height="600" fill="#001220"></rect><path d="M0 405L21.5 404.7C43 404.3 86 403.7 128.8 393.2C171.7 382.7 214.3 362.3 257.2 363.5C300 364.7 343 387.3 385.8 396.3C428.7 405.3 471.3 400.7 514.2 398.5C557 396.3 600 396.7 642.8 395.8C685.7 395 728.3 393 771.2 384.8C814 376.7 857 362.3 878.5 355.2L900 348L900 601L878.5 601C857 601 814 601 771.2 601C728.3 601 685.7 601 642.8 601C600 601 557 601 514.2 601C471.3 601 428.7 601 385.8 601C343 601 300 601 257.2 601C214.3 601 171.7 601 128.8 601C86 601 43 601 21.5 601L0 601Z" fill="#040476"></path><path d="M0 375L21.5 386.8C43 398.7 86 422.3 128.8 433C171.7 443.7 214.3 441.3 257.2 433.2C300 425 343 411 385.8 402.7C428.7 394.3 471.3 391.7 514.2 389.2C557 386.7 600 384.3 642.8 393.8C685.7 403.3 728.3 424.7 771.2 434C814 443.3 857 440.7 878.5 439.3L900 438L900 601L878.5 601C857 601 814 601 771.2 601C728.3 601 685.7 601 642.8 601C600 601 557 601 514.2 601C471.3 601 428.7 601 385.8 601C343 601 300 601 257.2 601C214.3 601 171.7 601 128.8 601C86 601 43 601 21.5 601L0 601Z" fill="#23168d"></path><path d="M0 413L21.5 416.5C43 420 86 427 128.8 434.3C171.7 441.7 214.3 449.3 257.2 453.3C300 457.3 343 457.7 385.8 460.5C428.7 463.3 471.3 468.7 514.2 468.5C557 468.3 600 462.7 642.8 453.7C685.7 444.7 728.3 432.3 771.2 429.8C814 427.3 857 434.7 878.5 438.3L900 442L900 601L878.5 601C857 601 814 601 771.2 601C728.3 601 685.7 601 642.8 601C600 601 557 601 514.2 601C471.3 601 428.7 601 385.8 601C343 601 300 601 257.2 601C214.3 601 171.7 601 128.8 601C86 601 43 601 21.5 601L0 601Z" fill="#3827a6"></path><path d="M0 516L21.5 514.5C43 513 86 510 128.8 505C171.7 500 214.3 493 257.2 493.5C300 494 343 502 385.8 504.2C428.7 506.3 471.3 502.7 514.2 498.3C557 494 600 489 642.8 490.5C685.7 492 728.3 500 771.2 499C814 498 857 488 878.5 483L900 478L900 601L878.5 601C857 601 814 601 771.2 601C728.3 601 685.7 601 642.8 601C600 601 557 601 514.2 601C471.3 601 428.7 601 385.8 601C343 601 300 601 257.2 601C214.3 601 171.7 601 128.8 601C86 601 43 601 21.5 601L0 601Z" fill="#4c39be"></path><path d="M0 491L21.5 497.2C43 503.3 86 515.7 128.8 520.3C171.7 525 214.3 522 257.2 523.8C300 525.7 343 532.3 385.8 534.3C428.7 536.3 471.3 533.7 514.2 528.2C557 522.7 600 514.3 642.8 508.2C685.7 502 728.3 498 771.2 497.7C814 497.3 857 500.7 878.5 502.3L900 504L900 601L878.5 601C857 601 814 601 771.2 601C728.3 601 685.7 601 642.8 601C600 601 557 601 514.2 601C471.3 601 428.7 601 385.8 601C343 601 300 601 257.2 601C214.3 601 171.7 601 128.8 601C86 601 43 601 21.5 601L0 601Z" fill="#5e4bd8"></path><path d="M0 567L21.5 561C43 555 86 543 128.8 538C171.7 533 214.3 535 257.2 543.5C300 552 343 567 385.8 566.2C428.7 565.3 471.3 548.7 514.2 546.5C557 544.3 600 556.7 642.8 559C685.7 561.3 728.3 553.7 771.2 549.8C814 546 857 546 878.5 546L900 546L900 601L878.5 601C857 601 814 601 771.2 601C728.3 601 685.7 601 642.8 601C600 601 557 601 514.2 601C471.3 601 428.7 601 385.8 601C343 601 300 601 257.2 601C214.3 601 171.7 601 128.8 601C86 601 43 601 21.5 601L0 601Z" fill="#715df2"></path></svg>